<svg id="Capa_1" enable-background="new 0 0 512.065 512.065" height="512" viewBox="0 0 512.065 512.065" width="512" xmlns="http://www.w3.org/2000/svg"><g><g><path d="m284.876 122.095c-11.525 0-21.852 5.459-28.84 14.084-6.988-8.625-17.315-14.084-28.84-14.084-21.054 0-38.124 18.215-38.124 40.686 0 19.638 17.944 53 57.684 73.426 2.417 1.242 4.914 2.436 7.493 3.576 1.136.502 2.438.502 3.574 0 2.579-1.139 5.076-2.334 7.493-3.576 39.736-20.426 57.68-53.788 57.68-73.426 0-22.471-17.066-40.686-38.12-40.686z" fill="#fca5cd"/><path d="m322.998 162.78c0 19.638-17.947 52.999-57.686 73.426-2.417 1.24-4.907 2.438-7.492 3.572-1.135.504-2.438.504-3.573 0-2.574-1.135-5.075-2.333-7.492-3.572-3.762-1.933-7.324-3.982-10.697-6.126 32.268-20.5 46.979-49.521 46.979-67.3 0-14.658-7.25-27.498-18.136-34.664 5.811-3.814 12.651-6.021 19.975-6.021 21.058.001 38.122 18.21 38.122 40.685z" fill="#fc7cb6"/></g><g><g><path d="m323.738 356.29 18.078-82.23c6.278-28.557 27.907-51.257 56.127-58.908l60.823-16.49s10.053 26.349-16.627 41.788c0 0 24.495 32.657-16.724 57.068 0 0 15.265 33.351-73.802 56.176" fill="#b5dbfd"/><path d="m394.43 390.957 61.319 37.162c3.835 2.324 8.795 1.647 11.813-1.669 6.538-7.185 16.333-21.938 16.677-46.079.076-5.339-4.279-9.69-9.617-9.583l-59.588 1.191z" fill="#b5dbfd"/><path d="m484.243 380.374c-.349 24.136-10.141 38.894-16.681 46.076-3.016 3.317-7.973 3.996-11.809 1.668l-13.364-8.096c1.442-.424 2.78-1.225 3.845-2.403 5.89-6.475 14.711-19.763 15.022-41.505.028-1.875-.556-3.609-1.555-5.023l14.919-.302c5.344-.113 9.698 4.241 9.623 9.585z" fill="#8dcafc"/><path d="m440.457 393.097c-4.919 5.975-10.518 11.224-16.634 15.673l-29.395-17.812 20.602-18.981 31.675-.631c1.028 7.784-1.215 15.653-6.248 21.751z" fill="#8dcafc"/><path d="m384.529 343.703c-11.705-6.984-20.751-17.546-26.329-29.982-7.643-17.04-24.355-39.652-42.63-40.998-14.893-1.097-28.848 6.743-31.688 21.403-2.452 12.66 4.362 24.959 15.707 29.912-4.481 28.165 8.145 57.497 34.132 73.001 30.884 18.426 70.007 10.996 92.196-15.932 3.688-4.476 2.578-11.174-2.403-14.145z" fill="#d9ecfd"/><path d="m425.915 381.109c-22.185 26.925-61.315 34.352-92.199 15.927-8.52-5.08-15.597-11.649-21.111-19.179 1.838 1.366 3.77 2.648 5.777 3.845 30.884 18.425 70.004 10.998 92.199-15.927 1.282-1.564 1.989-3.393 2.139-5.249l10.791 6.437c4.987 2.968 6.089 9.669 2.404 14.146z" fill="#b5dbfd"/><path d="m330.683 355.638 40.409-73.863c14.033-25.651 41.16-41.377 70.393-40.808l63.007 1.225s2.262 28.111-27.677 35.45c0 0 14.356 38.215-32.054 50.09 0 0 5.301 36.293-86.592 33.23" fill="#d9ecfd"/><path d="m504.496 242.193-26.407-.509c-.264 7.247-3.289 27.67-28.433 33.833 0 0 14.74 39.253-32.929 51.457 0 0 3.029 20.854-34.959 30.051-1.214.294-1.817 1.669-1.213 2.762.006.011.012.022.018.033.351.635 1.043 1.012 1.767.973 66.716-3.51 62.424-33.066 62.424-33.066 46.406-11.875 32.052-50.091 32.052-50.091 29.942-7.33 27.68-35.443 27.68-35.443z" fill="#b5dbfd"/></g><g><path d="m188.327 356.29-18.078-82.23c-6.278-28.557-27.907-51.257-56.127-58.908l-60.823-16.49s-10.053 26.349 16.627 41.788c0 0-24.495 32.657 16.724 57.068 0 0-15.265 33.351 73.802 56.176" fill="#8dcafc"/><path d="m117.635 390.957-61.319 37.162c-3.835 2.324-8.795 1.647-11.813-1.669-6.538-7.185-16.333-21.938-16.677-46.079-.076-5.339 4.279-9.69 9.617-9.583l59.588 1.191z" fill="#b5dbfd"/><path d="m27.822 380.374c.349 24.136 10.141 38.894 16.681 46.076 3.016 3.317 7.973 3.996 11.809 1.668l13.364-8.096c-1.442-.424-2.78-1.225-3.845-2.403-5.89-6.475-14.711-19.763-15.022-41.505-.028-1.875.556-3.609 1.555-5.023l-14.919-.302c-5.344-.113-9.698 4.241-9.623 9.585z" fill="#8dcafc"/><path d="m71.608 393.097c4.919 5.975 10.518 11.224 16.634 15.673l29.395-17.812-20.602-18.981-31.675-.631c-1.028 7.784 1.215 15.653 6.248 21.751z" fill="#8dcafc"/><path d="m127.537 343.703c11.705-6.984 20.751-17.546 26.329-29.982 7.643-17.04 24.355-39.652 42.63-40.998 14.893-1.097 28.848 6.743 31.688 21.403 2.452 12.66-4.362 24.959-15.707 29.912 4.481 28.165-8.145 57.497-34.132 73.001-30.884 18.426-70.007 10.996-92.196-15.932-3.688-4.476-2.578-11.174 2.403-14.145z" fill="#d9ecfd"/><path d="m212.479 324.037c4.476 28.16-8.143 57.497-34.139 73.006-14.942 8.91-31.806 11.768-47.757 9.289 8.826-1.366 17.548-4.424 25.691-9.289 25.996-15.509 38.615-44.846 34.139-73.006 11.338-4.949 18.157-17.253 15.709-29.915-1.891-9.74-8.69-16.476-17.411-19.575 2.543-.998 5.149-1.639 7.786-1.828 14.889-1.093 28.843 6.746 31.691 21.404 2.448 12.661-4.371 24.965-15.709 29.914z" fill="#b5dbfd"/><path d="m181.382 355.638-40.409-73.863c-14.033-25.651-41.16-41.377-70.393-40.808l-63.007 1.225s-2.262 28.111 27.677 35.45c0 0-14.356 38.215 32.054 50.09 0 0-5.301 36.293 86.592 33.23z" fill="#d9ecfd"/><path d="m172.89 357.236c-.132.025-.264.05-.397.075-11.84 2.229-23.774-3.416-29.556-13.986l-31.76-58.05c-13.355-24.398-37.575-40.559-64.705-43.837l24.104-.473c29.242-.567 56.362 15.162 70.4 40.811l36.261 66.272c2.049 3.745-.153 8.398-4.347 9.188z" fill="#b5dbfd"/></g></g><g><path d="m330.496 162.781c0-26.57-20.465-48.186-45.62-48.186-10.605 0-20.76 3.879-28.84 10.847-8.08-6.968-18.235-10.847-28.84-10.847-25.157 0-45.625 21.616-45.625 48.186 0 8.911 3.076 19.57 8.66 30.014 1.953 3.653 6.499 5.031 10.15 3.078 3.653-1.953 5.031-6.498 3.078-10.15-4.441-8.307-6.888-16.455-6.888-22.941 0-18.298 13.738-33.186 30.625-33.186 8.804 0 17.191 4.121 23.012 11.306 1.424 1.758 3.565 2.779 5.828 2.779 2.262 0 4.403-1.021 5.828-2.779 5.821-7.185 14.208-11.306 23.012-11.306 16.884 0 30.62 14.887 30.62 33.186 0 15.155-14.554 46.68-53.609 66.756-1.907.98-3.871 1.929-5.851 2.829-1.979-.898-3.941-1.847-5.852-2.829-10.447-5.37-19.84-11.973-27.917-19.626-3.006-2.849-7.754-2.72-10.603.286-2.849 3.007-2.721 7.754.286 10.603 9.109 8.631 19.666 16.059 31.377 22.079 2.57 1.321 5.225 2.588 7.891 3.766 1.531.676 3.174 1.015 4.818 1.015s3.287-.338 4.818-1.015c2.669-1.18 5.324-2.447 7.89-3.766 40.541-20.842 61.752-56.07 61.752-80.099z"/><path d="m511.967 241.59c-.309-3.84-3.478-6.822-7.33-6.897l-43.944-.855c9.779-13.675 8.241-29.567 5.08-37.851-1.373-3.6-5.249-5.571-8.97-4.565l-39.493 10.708c-3.998 1.084-6.36 5.204-5.276 9.201 1.084 3.998 5.203 6.36 9.201 5.276l31.886-8.645c.569 6.919-1.068 17.661-13.911 25.498-31.218.237-59.657 17.222-74.697 44.714l-8.734 15.965c-2.527-3.718-5.322-7.34-8.347-10.693l1.71-7.778c4.912-22.341 20.396-41.045 41.421-50.034 3.809-1.628 5.576-6.036 3.948-9.844-1.628-3.809-6.037-5.575-9.844-3.948-25.362 10.843-44.065 33.357-50.096 60.269-5.768-3.848-11.981-6.392-18.45-6.869-19.899-1.47-36.187 9.824-39.603 27.457-1.221 6.303-.581 12.652 1.548 18.42l-6.975 2.928c-3.819 1.604-5.615 6-4.012 9.819 1.206 2.871 3.989 4.599 6.919 4.599.968 0 1.952-.188 2.9-.586l9.421-3.955c1.584 1.563 3.311 2.995 5.197 4.236-2.801 30.378 11.87 59.512 38.362 75.319 12.368 7.379 26.428 11.209 40.649 11.208 4.622 0 9.263-.405 13.866-1.224 7.42-1.32 14.549-3.693 21.206-6.97l46.264 28.037c2.723 1.651 5.762 2.452 8.776 2.452 4.627 0 9.197-1.888 12.472-5.487 6.792-7.465 18.245-24.02 18.628-51.02.066-4.64-1.709-8.998-4.999-12.269-3.283-3.265-7.618-5.003-12.267-4.92l-42.859.857c-1.196-1.419-2.626-2.65-4.258-3.624l-1.09-.65c8.137-3.403 14.483-7.785 18.983-13.142 4.06-4.833 5.834-9.567 6.573-13.233 14.339-4.646 24.399-12.371 29.945-23.011 5.379-10.321 5.085-20.933 3.965-27.834 22.428-8.995 27.109-30.2 26.235-41.059zm-37.195 136.695c.671-.014 1.127.296 1.392.56.269.267.587.73.577 1.419-.106 7.468-1.226 13.895-2.853 19.39l-22.423-10.103c-3.775-1.702-8.217-.02-9.919 3.757-1.702 3.776-.02 8.217 3.757 9.919l22.604 10.185c-2.069 3.445-4.169 6.098-5.891 7.99-.593.652-1.594.778-2.379.303l-39.861-24.157c4.353-3.443 8.361-7.342 11.928-11.67 1.654-2.007 2.793-4.337 3.395-6.799zm.257-107.927c-2.068.507-3.816 1.89-4.82 3.767-1.004 1.878-1.156 4.114-.429 6.116.044.124 4.413 12.475-1.378 23.433-4.163 7.879-12.743 13.529-25.5 16.793-3.716.951-6.116 4.554-5.562 8.35.005.034.131 3.851-3.576 8.264-4.767 5.674-18.558 15.357-57.375 16.46-4.141.118-7.402 3.57-7.284 7.71.116 4.068 3.45 7.287 7.493 7.287.072 0 .145-.001.217-.003 11.089-.315 20.999-1.309 29.726-2.967l13.131 7.835c.619.369.83.913.897 1.304.059.338.08 1-.44 1.63-20.005 24.278-55.501 30.409-82.565 14.26-22.73-13.562-34.729-39.226-30.568-65.382.537-3.374-1.275-6.685-4.406-8.052-8.297-3.622-13.068-12.711-11.344-21.612 2.244-11.584 13.9-16.071 23.774-15.35 11.72.864 24.41 14.763 32.5 29.035l-23.415 42.801c-1.988 3.634-.654 8.191 2.98 10.179 3.634 1.989 8.191.654 10.179-2.98l40.409-73.863c12.738-23.282 37.159-37.415 63.667-36.909l55.128 1.072c-1.423 6.892-6.155 17.075-21.439 20.822z"/><path d="m313.908 289.446-.096-.019c-4.068-.787-7.955 1.878-8.743 5.944-.789 4.067 1.917 8.012 5.983 8.8.482.094.962.139 1.436.139 3.52 0 6.66-2.49 7.354-6.074.79-4.066-1.867-8.001-5.934-8.79z"/><path d="m199.577 304.311c.476 0 .958-.045 1.443-.14l.095-.019c4.065-.792 6.672-4.721 5.879-8.787-.792-4.066-4.779-6.714-8.844-5.917-4.065.792-6.719 4.73-5.927 8.796.698 3.581 3.837 6.067 7.354 6.067z"/><path d="m240.975 314.048-6.975-2.928c2.128-5.768 2.768-12.117 1.547-18.42-3.416-17.633-19.705-28.927-39.602-27.457-6.744.497-12.942 3.113-18.468 6.797-7.018-31.201-30.502-55.753-61.392-64.128l-60.823-16.49c-3.717-1.009-7.597.965-8.97 4.565-3.161 8.284-4.699 24.175 5.08 37.851l-43.944.855c-3.852.075-7.021 3.057-7.33 6.897-.874 10.858 3.807 32.063 26.235 41.061-1.12 6.901-1.415 17.513 3.965 27.834 5.546 10.64 15.606 18.365 29.945 23.011.739 3.666 2.514 8.4 6.573 13.233 4.5 5.356 10.846 9.739 18.983 13.142l-1.09.65c-1.632.973-3.062 2.205-4.258 3.624l-42.86-.857c-4.636-.092-8.983 1.655-12.267 4.92-3.29 3.271-5.065 7.629-4.999 12.269.384 27.001 11.836 43.555 18.629 51.02 3.275 3.599 7.843 5.487 12.471 5.487 3.014 0 6.054-.801 8.776-2.451l46.204-28.001c10.882 5.375 22.886 8.193 35.064 8.192 9.487 0 19.081-1.708 28.325-5.243 3.869-1.479 5.806-5.815 4.327-9.684s-5.813-5.807-9.684-4.327c-7.497 2.867-15.27 4.251-22.964 4.25-18.789-.001-37.079-8.264-49.538-23.383-.519-.63-.499-1.292-.44-1.629.068-.392.279-.936.898-1.305l13.13-7.835c8.727 1.657 18.638 2.652 29.726 2.967.073.002.145.003.217.003 4.043 0 7.377-3.219 7.493-7.287.118-4.14-3.144-7.592-7.284-7.71-38.041-1.081-51.992-10.451-56.923-15.94-3.936-4.381-4.028-8.178-4.006-8.895.763-3.886-1.727-7.252-5.584-8.24-12.757-3.264-21.337-8.914-25.5-16.793-5.791-10.958-1.422-23.309-1.392-23.394.754-2.007.613-4.241-.388-6.138s-2.765-3.274-4.848-3.784c-15.28-3.746-20.019-13.89-21.439-20.821l55.129-1.072c26.502-.518 50.929 13.627 63.667 36.909l40.41 73.863c1.987 3.634 6.545 4.969 10.179 2.98 3.634-1.988 4.968-6.545 2.98-10.179l-23.415-42.8c7.458-13.151 20.096-28.123 32.5-29.036 9.882-.736 21.53 3.766 23.774 15.35 1.725 8.901-3.046 17.99-11.344 21.612-3.131 1.367-4.943 4.678-4.406 8.052 3.064 19.258-2.971 39.315-16.144 53.653-2.802 3.05-2.602 7.795.449 10.597 1.44 1.324 3.259 1.977 5.072 1.977 2.026 0 4.046-.816 5.525-2.426 15.038-16.368 22.534-38.778 20.568-60.852 1.889-1.243 3.619-2.677 5.206-4.242l9.421 3.955c.949.398 1.932.586 2.9.586 2.93 0 5.713-1.728 6.919-4.599 1.605-3.816-.191-8.212-4.01-9.816zm-148.711 83.514-39.836 24.142c-.784.476-1.784.349-2.377-.303-1.722-1.892-3.822-4.545-5.891-7.99l22.604-10.185c3.776-1.702 5.458-6.143 3.757-9.919s-6.142-5.46-9.919-3.757l-22.423 10.103c-1.626-5.495-2.747-11.923-2.853-19.391-.01-.688.309-1.151.577-1.418.264-.263.707-.582 1.391-.56l39.674.793c.602 2.462 1.74 4.791 3.394 6.798 3.6 4.371 7.598 8.269 11.902 11.687zm55.288-119.387c-15.039-27.49-43.488-44.453-74.694-44.712-12.855-7.843-14.485-18.596-13.917-25.501l53.218 14.428c25.614 6.944 45.066 27.36 50.764 53.28l1.706 7.759c-3.258 3.64-6.055 7.371-8.335 10.725z"/><path d="m176.815 114.933c1.466 1.475 3.392 2.213 5.319 2.213 1.912 0 3.824-.727 5.287-2.181 2.938-2.92 2.952-7.669.032-10.606l-7.829-7.876c-2.919-2.938-7.668-2.952-10.606-.032s-2.952 7.669-.032 10.606z"/><path d="m153.136 137.161 10.892 2.732c.613.154 1.226.228 1.83.228 3.358 0 6.415-2.272 7.269-5.677 1.008-4.018-1.432-8.092-5.45-9.099l-10.892-2.732c-4.016-1.008-8.091 1.431-9.099 5.45-1.007 4.017 1.433 8.091 5.45 9.098z"/><path d="m197.911 95.276c.837 3.425 3.903 5.72 7.279 5.72.589 0 1.189-.07 1.788-.217 4.023-.984 6.487-5.043 5.503-9.067l-2.668-10.91c-.983-4.023-5.039-6.488-9.067-5.503-4.023.984-6.487 5.043-5.503 9.067z"/><path d="m329.935 117.146c1.927 0 3.854-.738 5.319-2.213l7.829-7.876c2.92-2.938 2.906-7.687-.032-10.606-2.937-2.919-7.686-2.905-10.606.032l-7.829 7.876c-2.92 2.938-2.906 7.687.032 10.606 1.463 1.455 3.375 2.181 5.287 2.181z"/><path d="m338.943 134.444c.854 3.405 3.91 5.677 7.269 5.677.604 0 1.218-.074 1.83-.228l10.892-2.732c4.018-1.007 6.458-5.082 5.45-9.099-1.007-4.018-5.082-6.461-9.099-5.45l-10.892 2.732c-4.018 1.008-6.458 5.082-5.45 9.1z"/><path d="m305.092 100.779c.599.146 1.198.217 1.788.217 3.375 0 6.442-2.295 7.279-5.72l2.668-10.91c.984-4.024-1.48-8.083-5.503-9.067-4.027-.987-8.083 1.48-9.067 5.503l-2.668 10.91c-.984 4.024 1.479 8.084 5.503 9.067z"/></g></g></svg>